<svg width="800" height="600" xmlns="http://www.w3.org/2000/svg">
 <g>
  <title>Layer 1</title>
  <path id="svg_7" d="m779,654.5c-50,97 -52,97 -50,97c2,0 100,-194 50,-97z" opacity="NaN" stroke="#000" fill="none"/>
  <path fill="#e4e4e4" stroke="#e4e4e4" opacity="undefined" d="m379.5,437.5c-19.06077,0 -34.5,-15.43923 -34.5,-34.5c0,-19.06077 15.43923,-34.5 34.5,-34.5c19.06077,0 34.5,15.43923 34.5,34.5c0,19.06077 -15.43923,34.5 -34.5,34.5z" id="svg_3"/>
  <path transform="rotate(56.9308 540.349 299.816)" fill="#e4e4e4" d="m515.22764,468.64056l25.12126,-337.64822l25.12126,337.64822l-50.24252,0z" id="svg_10" stroke="#e4e4e4"/>
  <path transform="rotate(-54.4064 309.78 356.568)" fill="#e4e4e4" d="m285.06668,434.27545l24.7132,-155.41505l24.7132,155.41505l-49.42641,0l0.00001,0z" id="svg_12" stroke="#e4e4e4"/>
 </g>

</svg>